
<svg id="Layer_1" xmlns="http://www.w3.org/2000/svg" xmlns:xlink="http://www.w3.org/1999/xlink" version="1.1" viewBox="0 0 180 180">
  <!-- Generator: Adobe Illustrator 29.2.1, SVG Export Plug-In . SVG Version: 2.1.0 Build 116)  -->
  <defs>
    <style>
      .st0 {
        fill: #f7562c;
      }

      .st1 {
        fill: #f7552c;
      }
    </style>
  </defs>
  <path class="st0" d="M62.1,15.9c-2.3-.6-4.6-1.2-7.1-2-2.5-2.9-2-5.8-1.4-8.8h.2c2.8-.4,5.4-1.1,8-1.1h34.6c11.5,0,20.2.2,30.3.3v.2c.2.3.4.3.6.4v.3c.2.2.4.3.6.4v.2c.2.3.4.4.5.5v.2c-.2,2.3-.4,4.4-.6,6.5h-.2c-.5.4-.7.8-1,1.2h-.2c-.5.2-.7.4-1,.7h-.2c-2.1.5-4.4-1.3-5.7,1.2h-.2c-.3.6-.4,1-.4,1.4v38.8c0,.7.4,1.4.6,2.1v.2c.2.7.5,1.1.7,1.6,15.7,24.6,31.3,49.2,46.9,74,0,.4.2.5.4.6v.2c.2.4.5.7.8.9v.2c.5.9,1.1,1.6,1.7,2.3v.2c.4.7.8,1.1,1.2,1.6v.2c.2.5.4.7.7,1v.2c.1,1,.2,1.8.4,2.5,1.6,4.5,2.6,9,1.3,13.8-.5,1.7-.7,3.4-1.1,5.1h-.2c-.5.8-.8,1.6-1.1,2.3-2.2,3.7-5.5,5.7-9.4,7.2-3.5,1.4-7,2.3-10.8,2.3H31.8c-2.8,0-5.6-.3-8.3-.7-4.9-.7-8.4-3.8-11.6-7.7-.3-.7-.3-1.1-.5-1.4-3.7-5.5-4-11.5-2.7-17.8.2-.9,0-1.8,0-2.7,2.3-4,4.4-8.2,6.9-12.1,14.4-22.9,28.9-45.7,43.4-68.5,1.1-1.7,1.9-3.4,3.2-5.4.5-1,.8-1.8.8-2.5V18.3c0-.7-.3-1.5-.5-2.2M68.5,65.6h-.2s.2.2.2.8c-9,14.2-18,28.5-27.1,42.7-7.6,12-15.3,23.9-23.2,35.9,0,.2-.2.4-.2.5h-.4c-.7,2-1.7,3.8-2.1,5.7-.5,2.1-1,4.5,1.2,6.1v.3c.2.3.4.6,1,1.1,2.2,3.6,5.6,5.4,9.9,6.3.8.2,1.6.6,2.4.6h120.5c.8,0,1.6-.7,2.9-1.1.9,0,1.9.3,2.7,0,4.5-1.3,9.2-7,9.1-12.2-.1-3.9-1.9-6.8-3.9-9.9-7.9-12.1-15.6-24.4-23.3-36.7-8.5-13.5-17-27.1-25.2-40.8-.4-.5-.7-1-1-1.5v-.5c-.2-2.3-.6-4.5-.6-6.8V18.5c0-1.2-.9-2.3-1.2-3.6l-.2-.3c-.3,0-.6-.2-.8-.2h-35.3c-.6,0-1.2.5-1.7,1,0,0,0,.2-.6.3-.2.9-.6,1.8-.6,2.7-.6,15.2,1.2,30.5-1,45.6h-.4c0,.5-.2.9-.3,1.2h-.2l-.4.3h0Z"/>
  <path class="st1" d="M102,128.9c-2.9-2.9-5.8-5.7-8.7-8.9,0-.3-.3-.4-.4-.4v-.3c-1.7-3.6-2.6-7.2-2.2-11,0-.7-.4-1.4-.6-2.1h0c-.4,0-.7.4-1,.7h-.2c-.2.3-.3.5-.4.7h-.2c-.8,1.1-1.4,2.1-2.1,3.1h-.2c-.3.4-.4.7-.6,1.1h-.2c-.2.3-.3.4-.4.6h0c-.2.3-.3.5-.4.7,0,0,0,0-.2,0-.5.6-.8,1.2-1.1,1.8h-.2c-.4.5-.6.9-.8,1.3,0,0,0,0-.3,0-.7,1-1.2,2-1.7,3h-.2c-.3.4-.4.8-.5,1.1h-.2c-.2.3-.3.5-.3.7h-.2c-.2.4-.3.8-.4,1.2h-.2c-.3.4-.3.8-.4,1.2h-.3c-3,4.7-3,9.8-1.9,14.9.6,2.7,2.5,5.1,3.8,7.6v.2c.3.4.5.7.8.9v.2c0,1.1.2,1.9.4,2.8-12-3.2-18.9-11.5-22.8-22.7-2.6-7.3-1-14.3,1.9-21.3,3.8-9.1,10.4-16,16.5-23.4,1.2-1.5,2.2-3,3.7-4.7.4-.4.5-.6.6-.8h.2c.7-1.2,1.1-2.4,1.6-3.6h.2c.2-.4.3-.8.3-1.2h.2c2.2-4.1,4-8.2,2.5-12.9,0-.3,0-.5.2-1.1.8-1.4,1.3-2.5,1.9-3.7,5,3.2,8.6,7.7,11.4,13,.5,1.2,1.1,2,1.7,2.8v.3c0,1.1,0,2,.4,2.8,1.9,5.6,1.7,11.4,1.1,17.1-.4,3.4-1.5,6.8-1.8,10.2,0,1.6.9,3.3,1.4,4.9v.2c.4.6.9,1.1,1.4,1.5,0,0,0,0,0,.2,2.6,1.8,4.1,1.6,5.8-.8.3-.3.5-.6,1.1-1.1.4-.3.5-.5.7-.7,0,0,0,0,0,0,1.4-2.6,2.5-5.1,3.8-7.8h1.1v.2c.3.4.5.7.8.9v.2c.2.2.4.4.6.5v.2c.3.4.5.7.8.9v.2c.2.3.4.4.6.5v.2c1.3,2.6,2.5,5,3.8,7.4v.3c0,.7-.3,1.3,0,1.7,2.3,6.8,2,13.5-.4,20.2-.2.5,0,1.2.2,1.8-1.4,2.4-2.8,4.7-4.6,7.1-.7.5-.9,1-1.2,1.4h-.2c-.2.2-.3.4-.4.7h-.2c-.2.2-.3.5-.4.7h-.2c-.2.2-.3.5-.4.7h-.2c-.2.2-.3.4-.5.6h-.2c-1,.8-1.9,1.7-2.7,2.5h-.3c-1.3.3-2.4.7-3.5,1.1-1.4.6-2.8,1.2-4.2,1.8v-1.9h.2c.9-1.4,1.8-2.7,2.4-4.2,1.6-3.5.3-10.4-2.2-13v-.2c-.2-.3-.3-.4-.5-.5l-.6-.3h0Z"/>
</svg>